<mxfile host="app.diagrams.net" modified="2020-10-23T04:31:33.772Z" agent="5.0 (Macintosh; Intel Mac OS X 10_12_6) AppleWebKit/537.36 (KHTML, like Gecko) Chrome/86.0.4240.80 Safari/537.36" etag="OFDIteRB2fG5sB2HGBGP" version="13.8.1" type="github">
  <diagram id="TGd5bZQ37jyco5lTSg2u" name="Page-1">
    <mxGraphModel dx="766" dy="437" grid="1" gridSize="10" guides="1" tooltips="1" connect="1" arrows="1" fold="1" page="1" pageScale="1" pageWidth="827" pageHeight="1169" math="0" shadow="0">
      <root>
        <mxCell id="0" />
        <mxCell id="1" parent="0" />
        <mxCell id="L1btHAfHGWUPAy4XOACO-8" style="edgeStyle=orthogonalEdgeStyle;rounded=0;orthogonalLoop=1;jettySize=auto;html=1;exitX=0.75;exitY=1;exitDx=0;exitDy=0;entryX=0.25;entryY=0;entryDx=0;entryDy=0;" edge="1" parent="1" source="L1btHAfHGWUPAy4XOACO-1" target="L1btHAfHGWUPAy4XOACO-4">
          <mxGeometry relative="1" as="geometry" />
        </mxCell>
        <mxCell id="L1btHAfHGWUPAy4XOACO-10" style="edgeStyle=orthogonalEdgeStyle;rounded=0;orthogonalLoop=1;jettySize=auto;html=1;" edge="1" parent="1" source="L1btHAfHGWUPAy4XOACO-1" target="L1btHAfHGWUPAy4XOACO-2">
          <mxGeometry relative="1" as="geometry" />
        </mxCell>
        <mxCell id="L1btHAfHGWUPAy4XOACO-1" value="点云编码网络" style="rounded=0;whiteSpace=wrap;html=1;" vertex="1" parent="1">
          <mxGeometry x="160" y="140" width="110" height="40" as="geometry" />
        </mxCell>
        <mxCell id="L1btHAfHGWUPAy4XOACO-7" style="edgeStyle=orthogonalEdgeStyle;rounded=0;orthogonalLoop=1;jettySize=auto;html=1;exitX=0.25;exitY=1;exitDx=0;exitDy=0;entryX=0.75;entryY=0;entryDx=0;entryDy=0;" edge="1" parent="1" source="L1btHAfHGWUPAy4XOACO-2" target="L1btHAfHGWUPAy4XOACO-4">
          <mxGeometry relative="1" as="geometry" />
        </mxCell>
        <mxCell id="L1btHAfHGWUPAy4XOACO-11" style="edgeStyle=orthogonalEdgeStyle;rounded=0;orthogonalLoop=1;jettySize=auto;html=1;" edge="1" parent="1" source="L1btHAfHGWUPAy4XOACO-2" target="L1btHAfHGWUPAy4XOACO-3">
          <mxGeometry relative="1" as="geometry" />
        </mxCell>
        <mxCell id="L1btHAfHGWUPAy4XOACO-2" value="特征提取网络" style="rounded=0;whiteSpace=wrap;html=1;" vertex="1" parent="1">
          <mxGeometry x="290" y="140" width="110" height="40" as="geometry" />
        </mxCell>
        <mxCell id="L1btHAfHGWUPAy4XOACO-3" value="检测头网络" style="rounded=0;whiteSpace=wrap;html=1;" vertex="1" parent="1">
          <mxGeometry x="420" y="140" width="110" height="40" as="geometry" />
        </mxCell>
        <mxCell id="L1btHAfHGWUPAy4XOACO-4" value="辅助网络" style="rounded=0;whiteSpace=wrap;html=1;" vertex="1" parent="1">
          <mxGeometry x="200" y="211" width="180" height="40" as="geometry" />
        </mxCell>
        <mxCell id="L1btHAfHGWUPAy4XOACO-9" value="特征插值" style="text;html=1;align=center;verticalAlign=middle;resizable=0;points=[];autosize=1;" vertex="1" parent="1">
          <mxGeometry x="259" y="185" width="60" height="20" as="geometry" />
        </mxCell>
      </root>
    </mxGraphModel>
  </diagram>
</mxfile>
